<mxfile host="65bd71144e">
    <diagram id="40FcXHJKd0aeauqZqk0w" name="Page-1">
        <mxGraphModel dx="5904" dy="1592" grid="0" gridSize="10" guides="1" tooltips="1" connect="1" arrows="1" fold="1" page="0" pageScale="1" pageWidth="850" pageHeight="1100" math="0" shadow="0">
            <root>
                <mxCell id="0"/>
                <mxCell id="1" parent="0"/>
                <mxCell id="2" value="RatatouilleApplication" style="swimlane;fontStyle=1;align=center;verticalAlign=middle;childLayout=stackLayout;horizontal=1;startSize=29;horizontalStack=0;resizeParent=1;resizeParentMax=0;resizeLast=0;collapsible=0;marginBottom=0;html=1;" vertex="1" parent="1">
                    <mxGeometry x="-70" y="4040" width="470" height="62" as="geometry"/>
                </mxCell>
                <mxCell id="9" value="" style="line;strokeWidth=1;fillColor=none;align=left;verticalAlign=middle;spacingTop=-1;spacingLeft=3;spacingRight=3;rotatable=0;labelPosition=right;points=[];portConstraint=eastwest;strokeColor=inherit;" vertex="1" parent="2">
                    <mxGeometry y="29" width="470" height="8" as="geometry"/>
                </mxCell>
                <mxCell id="16" value="+ main() : void" style="text;html=1;strokeColor=none;fillColor=none;align=left;verticalAlign=middle;spacingLeft=4;spacingRight=4;overflow=hidden;rotatable=0;points=[[0,0.5],[1,0.5]];portConstraint=eastwest;" vertex="1" parent="2">
                    <mxGeometry y="37" width="470" height="25" as="geometry"/>
                </mxCell>
                <mxCell id="240" style="edgeStyle=none;html=1;" edge="1" parent="1" source="17" target="29">
                    <mxGeometry relative="1" as="geometry"/>
                </mxCell>
                <mxCell id="241" value="1" style="edgeLabel;html=1;align=center;verticalAlign=middle;resizable=0;points=[];" connectable="0" vertex="1" parent="240">
                    <mxGeometry x="0.8692" y="-4" relative="1" as="geometry">
                        <mxPoint as="offset"/>
                    </mxGeometry>
                </mxCell>
                <mxCell id="17" value="Controller" style="swimlane;fontStyle=1;align=center;verticalAlign=middle;childLayout=stackLayout;horizontal=1;startSize=29;horizontalStack=0;resizeParent=1;resizeParentMax=0;resizeLast=0;collapsible=0;marginBottom=0;html=1;" vertex="1" parent="1">
                    <mxGeometry x="-386" y="2462" width="1160" height="1262" as="geometry"/>
                </mxCell>
                <mxCell id="18" value="" style="line;strokeWidth=1;fillColor=none;align=left;verticalAlign=middle;spacingTop=-1;spacingLeft=3;spacingRight=3;rotatable=0;labelPosition=right;points=[];portConstraint=eastwest;strokeColor=inherit;" vertex="1" parent="17">
                    <mxGeometry y="29" width="1160" height="8" as="geometry"/>
                </mxCell>
                <mxCell id="86" value="+ getUser(idRistorante: Integer): ArrayList&amp;lt;User&amp;gt;" style="text;html=1;strokeColor=none;fillColor=none;align=left;verticalAlign=middle;spacingLeft=4;spacingRight=4;overflow=hidden;rotatable=0;points=[[0,0.5],[1,0.5]];portConstraint=eastwest;" vertex="1" parent="17">
                    <mxGeometry y="37" width="1160" height="25" as="geometry"/>
                </mxCell>
                <mxCell id="87" value="+ modifyUserAccount(nome: String, cognome: String, dataNascita: String): User" style="text;html=1;strokeColor=none;fillColor=none;align=left;verticalAlign=middle;spacingLeft=4;spacingRight=4;overflow=hidden;rotatable=0;points=[[0,0.5],[1,0.5]];portConstraint=eastwest;" vertex="1" parent="17">
                    <mxGeometry y="62" width="1160" height="25" as="geometry"/>
                </mxCell>
                <mxCell id="90" value="+ modifyUserAccountDesktop(nome: String, cognome: String, email: String): User" style="text;html=1;strokeColor=none;fillColor=none;align=left;verticalAlign=middle;spacingLeft=4;spacingRight=4;overflow=hidden;rotatable=0;points=[[0,0.5],[1,0.5]];portConstraint=eastwest;" vertex="1" parent="17">
                    <mxGeometry y="87" width="1160" height="25" as="geometry"/>
                </mxCell>
                <mxCell id="91" value="+ updgradeUserRole(idUtente: int, ruolo: String): User" style="text;html=1;strokeColor=none;fillColor=none;align=left;verticalAlign=middle;spacingLeft=4;spacingRight=4;overflow=hidden;rotatable=0;points=[[0,0.5],[1,0.5]];portConstraint=eastwest;" vertex="1" parent="17">
                    <mxGeometry y="112" width="1160" height="25" as="geometry"/>
                </mxCell>
                <mxCell id="92" value="+ downgradeUserRole(idUtente: int, ruolo: String): User" style="text;html=1;strokeColor=none;fillColor=none;align=left;verticalAlign=middle;spacingLeft=4;spacingRight=4;overflow=hidden;rotatable=0;points=[[0,0.5],[1,0.5]];portConstraint=eastwest;" vertex="1" parent="17">
                    <mxGeometry y="137" width="1160" height="25" as="geometry"/>
                </mxCell>
                <mxCell id="93" value="+ fireUser(idUtente: int, ruolo: String): void" style="text;html=1;strokeColor=none;fillColor=none;align=left;verticalAlign=middle;spacingLeft=4;spacingRight=4;overflow=hidden;rotatable=0;points=[[0,0.5],[1,0.5]];portConstraint=eastwest;" vertex="1" parent="17">
                    <mxGeometry y="162" width="1160" height="25" as="geometry"/>
                </mxCell>
                <mxCell id="94" value="+ createAdmin(nome: String, cognome: String, email: String, password: String, dataNascita: String, nomeAttvita: String): User" style="text;html=1;strokeColor=none;fillColor=none;align=left;verticalAlign=middle;spacingLeft=4;spacingRight=4;overflow=hidden;rotatable=0;points=[[0,0.5],[1,0.5]];portConstraint=eastwest;" vertex="1" parent="17">
                    <mxGeometry y="187" width="1160" height="25" as="geometry"/>
                </mxCell>
                <mxCell id="95" value="+ createUser(nome: String, cognome: String, passwordTemporanea: String, email: String, dataNascita: String, ruolo: String): User" style="text;html=1;strokeColor=none;fillColor=none;align=left;verticalAlign=middle;spacingLeft=4;spacingRight=4;overflow=hidden;rotatable=0;points=[[0,0.5],[1,0.5]];portConstraint=eastwest;" vertex="1" parent="17">
                    <mxGeometry y="212" width="1160" height="25" as="geometry"/>
                </mxCell>
                <mxCell id="96" value="+ verifyUser(email: String, nomeRistorante: String): User" style="text;html=1;strokeColor=none;fillColor=none;align=left;verticalAlign=middle;spacingLeft=4;spacingRight=4;overflow=hidden;rotatable=0;points=[[0,0.5],[1,0.5]];portConstraint=eastwest;" vertex="1" parent="17">
                    <mxGeometry y="237" width="1160" height="25" as="geometry"/>
                </mxCell>
                <mxCell id="149" value="+ firstAccess(idUtente: int, password: String): User" style="text;html=1;strokeColor=none;fillColor=none;align=left;verticalAlign=middle;spacingLeft=4;spacingRight=4;overflow=hidden;rotatable=0;points=[[0,0.5],[1,0.5]];portConstraint=eastwest;" vertex="1" parent="17">
                    <mxGeometry y="262" width="1160" height="25" as="geometry"/>
                </mxCell>
                <mxCell id="97" value="+ getUserById(id: Integer): User" style="text;html=1;strokeColor=none;fillColor=none;align=left;verticalAlign=middle;spacingLeft=4;spacingRight=4;overflow=hidden;rotatable=0;points=[[0,0.5],[1,0.5]];portConstraint=eastwest;" vertex="1" parent="17">
                    <mxGeometry y="287" width="1160" height="25" as="geometry"/>
                </mxCell>
                <mxCell id="98" value="+ checkLogin(email: String, password: String): User" style="text;html=1;strokeColor=none;fillColor=none;align=left;verticalAlign=middle;spacingLeft=4;spacingRight=4;overflow=hidden;rotatable=0;points=[[0,0.5],[1,0.5]];portConstraint=eastwest;" vertex="1" parent="17">
                    <mxGeometry y="312" width="1160" height="25" as="geometry"/>
                </mxCell>
                <mxCell id="111" value="+ getAvvisi(idRistorante: Integer): ArrayList&amp;lt;Avviso&amp;gt;" style="text;html=1;strokeColor=none;fillColor=none;align=left;verticalAlign=middle;spacingLeft=4;spacingRight=4;overflow=hidden;rotatable=0;points=[[0,0.5],[1,0.5]];portConstraint=eastwest;" vertex="1" parent="17">
                    <mxGeometry y="337" width="1160" height="25" as="geometry"/>
                </mxCell>
                <mxCell id="112" value="+ getAvvisiViewed(idUtente: Integer): ArrayList&amp;lt;AvvisoNascostoVisto&amp;gt;" style="text;html=1;strokeColor=none;fillColor=none;align=left;verticalAlign=middle;spacingLeft=4;spacingRight=4;overflow=hidden;rotatable=0;points=[[0,0.5],[1,0.5]];portConstraint=eastwest;" vertex="1" parent="17">
                    <mxGeometry y="362" width="1160" height="25" as="geometry"/>
                </mxCell>
                <mxCell id="151" value="+ getAvvisiHidden(idUtente: Integer): ArrayList&amp;lt;AvvisoNascostoVisto&amp;gt;" style="text;html=1;strokeColor=none;fillColor=none;align=left;verticalAlign=middle;spacingLeft=4;spacingRight=4;overflow=hidden;rotatable=0;points=[[0,0.5],[1,0.5]];portConstraint=eastwest;" vertex="1" parent="17">
                    <mxGeometry y="387" width="1160" height="25" as="geometry"/>
                </mxCell>
                <mxCell id="120" value="+ setAvvisoViewed(idAvviso: Integer): AvvisoNascostoVisto" style="text;html=1;strokeColor=none;fillColor=none;align=left;verticalAlign=middle;spacingLeft=4;spacingRight=4;overflow=hidden;rotatable=0;points=[[0,0.5],[1,0.5]];portConstraint=eastwest;" vertex="1" parent="17">
                    <mxGeometry y="412" width="1160" height="25" as="geometry"/>
                </mxCell>
                <mxCell id="121" value="+ setAvvisoNotViewed(idAvviso: Integer): AvvisoNascostoVisto" style="text;html=1;strokeColor=none;fillColor=none;align=left;verticalAlign=middle;spacingLeft=4;spacingRight=4;overflow=hidden;rotatable=0;points=[[0,0.5],[1,0.5]];portConstraint=eastwest;" vertex="1" parent="17">
                    <mxGeometry y="437" width="1160" height="25" as="geometry"/>
                </mxCell>
                <mxCell id="122" value="+ setAvvisoHidden(idAvviso: Integer): AvvisoNascostoVisto" style="text;html=1;strokeColor=none;fillColor=none;align=left;verticalAlign=middle;spacingLeft=4;spacingRight=4;overflow=hidden;rotatable=0;points=[[0,0.5],[1,0.5]];portConstraint=eastwest;" vertex="1" parent="17">
                    <mxGeometry y="462" width="1160" height="25" as="geometry"/>
                </mxCell>
                <mxCell id="124" value="+ setAvvisoNotHidden(idAvviso: Integer): AvvisoNascostoVisto" style="text;html=1;strokeColor=none;fillColor=none;align=left;verticalAlign=middle;spacingLeft=4;spacingRight=4;overflow=hidden;rotatable=0;points=[[0,0.5],[1,0.5]];portConstraint=eastwest;" vertex="1" parent="17">
                    <mxGeometry y="487" width="1160" height="25" as="geometry"/>
                </mxCell>
                <mxCell id="113" value="+ getNumberOfAvvisiToRead(idUtente: Integer, idRistorante: Integer): Integer" style="text;html=1;strokeColor=none;fillColor=none;align=left;verticalAlign=middle;spacingLeft=4;spacingRight=4;overflow=hidden;rotatable=0;points=[[0,0.5],[1,0.5]];portConstraint=eastwest;" vertex="1" parent="17">
                    <mxGeometry y="512" width="1160" height="25" as="geometry"/>
                </mxCell>
                <mxCell id="114" value="+ createNewAvviso(idRistorante: Integer, testo: String) : Avviso" style="text;html=1;strokeColor=none;fillColor=none;align=left;verticalAlign=middle;spacingLeft=4;spacingRight=4;overflow=hidden;rotatable=0;points=[[0,0.5],[1,0.5]];portConstraint=eastwest;" vertex="1" parent="17">
                    <mxGeometry y="537" width="1160" height="25" as="geometry"/>
                </mxCell>
                <mxCell id="115" value="+ deleteAvviso(idAvviso: Integer): boolean" style="text;html=1;strokeColor=none;fillColor=none;align=left;verticalAlign=middle;spacingLeft=4;spacingRight=4;overflow=hidden;rotatable=0;points=[[0,0.5],[1,0.5]];portConstraint=eastwest;" vertex="1" parent="17">
                    <mxGeometry y="562" width="1160" height="25" as="geometry"/>
                </mxCell>
                <mxCell id="116" value="+ getMenu(idRistorante: Integer): ArrayList&amp;lt;Menu&amp;gt;" style="text;html=1;strokeColor=none;fillColor=none;align=left;verticalAlign=middle;spacingLeft=4;spacingRight=4;overflow=hidden;rotatable=0;points=[[0,0.5],[1,0.5]];portConstraint=eastwest;" vertex="1" parent="17">
                    <mxGeometry y="587" width="1160" height="25" as="geometry"/>
                </mxCell>
                <mxCell id="117" value="+ getMenuCategories(idRistorante: Integer): ArrayList&amp;lt;CategoriaMenu&amp;gt;" style="text;html=1;strokeColor=none;fillColor=none;align=left;verticalAlign=middle;spacingLeft=4;spacingRight=4;overflow=hidden;rotatable=0;points=[[0,0.5],[1,0.5]];portConstraint=eastwest;" vertex="1" parent="17">
                    <mxGeometry y="612" width="1160" height="25" as="geometry"/>
                </mxCell>
                <mxCell id="152" value="+ getMenuPlateByCategoria(idRistorante: Integer, categoria: String) : ArrayList&amp;lt;Menu&amp;gt;" style="text;html=1;strokeColor=none;fillColor=none;align=left;verticalAlign=middle;spacingLeft=4;spacingRight=4;overflow=hidden;rotatable=0;points=[[0,0.5],[1,0.5]];portConstraint=eastwest;" vertex="1" parent="17">
                    <mxGeometry y="637" width="1160" height="25" as="geometry"/>
                </mxCell>
                <mxCell id="125" value="+ updatePosizionePiatto(idPiatto: Integer, posizione: Integer): boolean" style="text;html=1;strokeColor=none;fillColor=none;align=left;verticalAlign=middle;spacingLeft=4;spacingRight=4;overflow=hidden;rotatable=0;points=[[0,0.5],[1,0.5]];portConstraint=eastwest;" vertex="1" parent="17">
                    <mxGeometry y="662" width="1160" height="25" as="geometry"/>
                </mxCell>
                <mxCell id="126" value="+ deleteSortingMenu(idRistorante: Integer) : boolean" style="text;html=1;strokeColor=none;fillColor=none;align=left;verticalAlign=middle;spacingLeft=4;spacingRight=4;overflow=hidden;rotatable=0;points=[[0,0.5],[1,0.5]];portConstraint=eastwest;" vertex="1" parent="17">
                    <mxGeometry y="687" width="1160" height="25" as="geometry"/>
                </mxCell>
                <mxCell id="127" value="+ updatePosizioneCategoria(idCategoria: Integer, posizione: Integer) : boolean" style="text;html=1;strokeColor=none;fillColor=none;align=left;verticalAlign=middle;spacingLeft=4;spacingRight=4;overflow=hidden;rotatable=0;points=[[0,0.5],[1,0.5]];portConstraint=eastwest;" vertex="1" parent="17">
                    <mxGeometry y="712" width="1160" height="25" as="geometry"/>
                </mxCell>
                <mxCell id="128" value="+ getMenuPlateFromResturant(idRistorante: Integer, nomePiatto: String): ArrayList&amp;lt;Menu&amp;gt;" style="text;html=1;strokeColor=none;fillColor=none;align=left;verticalAlign=middle;spacingLeft=4;spacingRight=4;overflow=hidden;rotatable=0;points=[[0,0.5],[1,0.5]];portConstraint=eastwest;" vertex="1" parent="17">
                    <mxGeometry y="737" width="1160" height="25" as="geometry"/>
                </mxCell>
                <mxCell id="129" value="+ getPlateById(idPiatto: Integer): Menu" style="text;html=1;strokeColor=none;fillColor=none;align=left;verticalAlign=middle;spacingLeft=4;spacingRight=4;overflow=hidden;rotatable=0;points=[[0,0.5],[1,0.5]];portConstraint=eastwest;" vertex="1" parent="17">
                    <mxGeometry y="762" width="1160" height="25" as="geometry"/>
                </mxCell>
                <mxCell id="130" value="+ getMenuPlateByName(nomePiatto: String) : User" style="text;html=1;strokeColor=none;fillColor=none;align=left;verticalAlign=middle;spacingLeft=4;spacingRight=4;overflow=hidden;rotatable=0;points=[[0,0.5],[1,0.5]];portConstraint=eastwest;" vertex="1" parent="17">
                    <mxGeometry y="787" width="1160" height="25" as="geometry"/>
                </mxCell>
                <mxCell id="131" value="+ createCategoria(nomeCategoriaNuova: String, idRistorante: Integer): boolean" style="text;html=1;strokeColor=none;fillColor=none;align=left;verticalAlign=middle;spacingLeft=4;spacingRight=4;overflow=hidden;rotatable=0;points=[[0,0.5],[1,0.5]];portConstraint=eastwest;" vertex="1" parent="17">
                    <mxGeometry y="812" width="1160" height="25" as="geometry"/>
                </mxCell>
                <mxCell id="153" value="+ createPlate(idRistorante : Integer, categoria : String, nome: String, prezzo: float, descrizione : String, allergeni : String, nomeSecondaLingua : String, descrizioneSecondaLingua : String): boolean" style="text;html=1;strokeColor=none;fillColor=none;align=left;verticalAlign=middle;spacingLeft=4;spacingRight=4;overflow=hidden;rotatable=0;points=[[0,0.5],[1,0.5]];portConstraint=eastwest;" vertex="1" parent="17">
                    <mxGeometry y="837" width="1160" height="25" as="geometry"/>
                </mxCell>
                <mxCell id="133" value="+ updatePlate(idPiatto: Integer, idRistorante : Integer, categoria : String, nome: String, prezzo: float, descrizione : String, allergeni : String, nomeSecondaLingua : String, descrizioneSecondaLingua : String): boolean" style="text;html=1;strokeColor=none;fillColor=none;align=left;verticalAlign=middle;spacingLeft=4;spacingRight=4;overflow=hidden;rotatable=0;points=[[0,0.5],[1,0.5]];portConstraint=eastwest;" vertex="1" parent="17">
                    <mxGeometry y="862" width="1160" height="25" as="geometry"/>
                </mxCell>
                <mxCell id="134" value="+ deletePlate(idPiatto : Integer): boolean" style="text;html=1;strokeColor=none;fillColor=none;align=left;verticalAlign=middle;spacingLeft=4;spacingRight=4;overflow=hidden;rotatable=0;points=[[0,0.5],[1,0.5]];portConstraint=eastwest;" vertex="1" parent="17">
                    <mxGeometry y="887" width="1160" height="25" as="geometry"/>
                </mxCell>
                <mxCell id="135" value="+ addSecondLanguage(idRistorante : Integer, idProdotto : Integer, nomeSecondaLingua : String, descrizioneSecondaLingua : String): Menu" style="text;html=1;strokeColor=none;fillColor=none;align=left;verticalAlign=middle;spacingLeft=4;spacingRight=4;overflow=hidden;rotatable=0;points=[[0,0.5],[1,0.5]];portConstraint=eastwest;" vertex="1" parent="17">
                    <mxGeometry y="912" width="1160" height="25" as="geometry"/>
                </mxCell>
                <mxCell id="136" value="+ getDispensa(idRistorante : Integer): ArrayList&amp;lt;Prodotto&amp;gt;" style="text;html=1;strokeColor=none;fillColor=none;align=left;verticalAlign=middle;spacingLeft=4;spacingRight=4;overflow=hidden;rotatable=0;points=[[0,0.5],[1,0.5]];portConstraint=eastwest;" vertex="1" parent="17">
                    <mxGeometry y="937" width="1160" height="25" as="geometry"/>
                </mxCell>
                <mxCell id="137" value="+ getDispensaProductsByCategory(idRistorante : Integer, categoria : String): ArrayList&amp;lt;Prodotto&amp;gt;" style="text;html=1;strokeColor=none;fillColor=none;align=left;verticalAlign=middle;spacingLeft=4;spacingRight=4;overflow=hidden;rotatable=0;points=[[0,0.5],[1,0.5]];portConstraint=eastwest;" vertex="1" parent="17">
                    <mxGeometry y="962" width="1160" height="25" as="geometry"/>
                </mxCell>
                <mxCell id="145" value="+ getDispensaProductsByName(idRistorante : Integer, nomeProdotto : String): ArrayList&amp;lt;Prodotto&amp;gt;" style="text;html=1;strokeColor=none;fillColor=none;align=left;verticalAlign=middle;spacingLeft=4;spacingRight=4;overflow=hidden;rotatable=0;points=[[0,0.5],[1,0.5]];portConstraint=eastwest;" vertex="1" parent="17">
                    <mxGeometry y="987" width="1160" height="25" as="geometry"/>
                </mxCell>
                <mxCell id="138" value="+ getAvaibleDispensaProduct(idRistorante : integer): ArrayList&amp;lt;Prodotto&amp;gt;" style="text;html=1;strokeColor=none;fillColor=none;align=left;verticalAlign=middle;spacingLeft=4;spacingRight=4;overflow=hidden;rotatable=0;points=[[0,0.5],[1,0.5]];portConstraint=eastwest;" vertex="1" parent="17">
                    <mxGeometry y="1012" width="1160" height="25" as="geometry"/>
                </mxCell>
                <mxCell id="140" value="+ createProduct(idProdotto: Integer, nomeProdotto : String, stato : Integer, descrizione : String, prezzo : Double, quantita : Double, unitaMisura : String, categoria : String): Prodotto" style="text;html=1;strokeColor=none;fillColor=none;align=left;verticalAlign=middle;spacingLeft=4;spacingRight=4;overflow=hidden;rotatable=0;points=[[0,0.5],[1,0.5]];portConstraint=eastwest;" vertex="1" parent="17">
                    <mxGeometry y="1037" width="1160" height="25" as="geometry"/>
                </mxCell>
                <mxCell id="141" value="+ modifyProduct(idProdotto: Integer, nomeProdotto : String, stato : Integer, descrizione : String, prezzo : Double, quantita : Double, unitaMisura : String, categoria : String): Prodotto" style="text;html=1;strokeColor=none;fillColor=none;align=left;verticalAlign=middle;spacingLeft=4;spacingRight=4;overflow=hidden;rotatable=0;points=[[0,0.5],[1,0.5]];portConstraint=eastwest;" vertex="1" parent="17">
                    <mxGeometry y="1062" width="1160" height="25" as="geometry"/>
                </mxCell>
                <mxCell id="142" value="+ deleteProduct(idProdotto : Integer): Prodotto" style="text;html=1;strokeColor=none;fillColor=none;align=left;verticalAlign=middle;spacingLeft=4;spacingRight=4;overflow=hidden;rotatable=0;points=[[0,0.5],[1,0.5]];portConstraint=eastwest;" vertex="1" parent="17">
                    <mxGeometry y="1087" width="1160" height="25" as="geometry"/>
                </mxCell>
                <mxCell id="143" value="+ getError(): String" style="text;html=1;strokeColor=none;fillColor=none;align=left;verticalAlign=middle;spacingLeft=4;spacingRight=4;overflow=hidden;rotatable=0;points=[[0,0.5],[1,0.5]];portConstraint=eastwest;" vertex="1" parent="17">
                    <mxGeometry y="1112" width="1160" height="25" as="geometry"/>
                </mxCell>
                <mxCell id="150" value="+ logout(id_user : Integer): String" style="text;html=1;strokeColor=none;fillColor=none;align=left;verticalAlign=middle;spacingLeft=4;spacingRight=4;overflow=hidden;rotatable=0;points=[[0,0.5],[1,0.5]];portConstraint=eastwest;" vertex="1" parent="17">
                    <mxGeometry y="1137" width="1160" height="25" as="geometry"/>
                </mxCell>
                <mxCell id="144" value="+ getBusinessFromId(id_ristorante : Integer): Business" style="text;html=1;strokeColor=none;fillColor=none;align=left;verticalAlign=middle;spacingLeft=4;spacingRight=4;overflow=hidden;rotatable=0;points=[[0,0.5],[1,0.5]];portConstraint=eastwest;" vertex="1" parent="17">
                    <mxGeometry y="1162" width="1160" height="25" as="geometry"/>
                </mxCell>
                <mxCell id="146" value="+ modifyBusinessInfo(id_ristorante : Integer, nome : String, numeroTelefono : String, indirizzo : String): Business" style="text;html=1;strokeColor=none;fillColor=none;align=left;verticalAlign=middle;spacingLeft=4;spacingRight=4;overflow=hidden;rotatable=0;points=[[0,0.5],[1,0.5]];portConstraint=eastwest;" vertex="1" parent="17">
                    <mxGeometry y="1187" width="1160" height="25" as="geometry"/>
                </mxCell>
                <mxCell id="147" value="+ saveBusinessImage(image : MultipartFile, fileName : String): void" style="text;html=1;strokeColor=none;fillColor=none;align=left;verticalAlign=middle;spacingLeft=4;spacingRight=4;overflow=hidden;rotatable=0;points=[[0,0.5],[1,0.5]];portConstraint=eastwest;" vertex="1" parent="17">
                    <mxGeometry y="1212" width="1160" height="25" as="geometry"/>
                </mxCell>
                <mxCell id="148" value="+ getBusinessImage(): String" style="text;html=1;strokeColor=none;fillColor=none;align=left;verticalAlign=middle;spacingLeft=4;spacingRight=4;overflow=hidden;rotatable=0;points=[[0,0.5],[1,0.5]];portConstraint=eastwest;" vertex="1" parent="17">
                    <mxGeometry y="1237" width="1160" height="25" as="geometry"/>
                </mxCell>
                <mxCell id="20" value="Avviso" style="swimlane;fontStyle=1;align=center;verticalAlign=middle;childLayout=stackLayout;horizontal=1;startSize=29;horizontalStack=0;resizeParent=1;resizeParentMax=0;resizeLast=0;collapsible=0;marginBottom=0;html=1;" vertex="1" parent="1">
                    <mxGeometry x="-1480" y="2527" width="470" height="87" as="geometry"/>
                </mxCell>
                <mxCell id="67" value="- id_avviso, id_utente, id_ristorante : int" style="text;html=1;strokeColor=none;fillColor=none;align=left;verticalAlign=middle;spacingLeft=4;spacingRight=4;overflow=hidden;rotatable=0;points=[[0,0.5],[1,0.5]];portConstraint=eastwest;" vertex="1" parent="20">
                    <mxGeometry y="29" width="470" height="25" as="geometry"/>
                </mxCell>
                <mxCell id="69" value="- testo, data, autore : String" style="text;html=1;strokeColor=none;fillColor=none;align=left;verticalAlign=middle;spacingLeft=4;spacingRight=4;overflow=hidden;rotatable=0;points=[[0,0.5],[1,0.5]];portConstraint=eastwest;" vertex="1" parent="20">
                    <mxGeometry y="54" width="470" height="25" as="geometry"/>
                </mxCell>
                <mxCell id="21" value="" style="line;strokeWidth=1;fillColor=none;align=left;verticalAlign=middle;spacingTop=-1;spacingLeft=3;spacingRight=3;rotatable=0;labelPosition=right;points=[];portConstraint=eastwest;strokeColor=inherit;" vertex="1" parent="20">
                    <mxGeometry y="79" width="470" height="8" as="geometry"/>
                </mxCell>
                <mxCell id="22" value="AvvisoNascostoVisto" style="swimlane;fontStyle=1;align=center;verticalAlign=middle;childLayout=stackLayout;horizontal=1;startSize=29;horizontalStack=0;resizeParent=1;resizeParentMax=0;resizeLast=0;collapsible=0;marginBottom=0;html=1;" vertex="1" parent="1">
                    <mxGeometry x="-1480" y="2697" width="470" height="62" as="geometry"/>
                </mxCell>
                <mxCell id="72" value="- data_nascosto_visto : String" style="text;html=1;strokeColor=none;fillColor=none;align=left;verticalAlign=middle;spacingLeft=4;spacingRight=4;overflow=hidden;rotatable=0;points=[[0,0.5],[1,0.5]];portConstraint=eastwest;" vertex="1" parent="22">
                    <mxGeometry y="29" width="470" height="25" as="geometry"/>
                </mxCell>
                <mxCell id="23" value="" style="line;strokeWidth=1;fillColor=none;align=left;verticalAlign=middle;spacingTop=-1;spacingLeft=3;spacingRight=3;rotatable=0;labelPosition=right;points=[];portConstraint=eastwest;strokeColor=inherit;" vertex="1" parent="22">
                    <mxGeometry y="54" width="470" height="8" as="geometry"/>
                </mxCell>
                <mxCell id="24" value="Business" style="swimlane;fontStyle=1;align=center;verticalAlign=middle;childLayout=stackLayout;horizontal=1;startSize=29;horizontalStack=0;resizeParent=1;resizeParentMax=0;resizeLast=0;collapsible=0;marginBottom=0;html=1;" vertex="1" parent="1">
                    <mxGeometry x="-1282" y="3135" width="470" height="87" as="geometry"/>
                </mxCell>
                <mxCell id="73" value="- idRistorante, idProprietario : int" style="text;html=1;strokeColor=none;fillColor=none;align=left;verticalAlign=middle;spacingLeft=4;spacingRight=4;overflow=hidden;rotatable=0;points=[[0,0.5],[1,0.5]];portConstraint=eastwest;" vertex="1" parent="24">
                    <mxGeometry y="29" width="470" height="25" as="geometry"/>
                </mxCell>
                <mxCell id="75" value="- nome, numeroTelefono, indirizzo, nomeImmagine: String" style="text;html=1;strokeColor=none;fillColor=none;align=left;verticalAlign=middle;spacingLeft=4;spacingRight=4;overflow=hidden;rotatable=0;points=[[0,0.5],[1,0.5]];portConstraint=eastwest;" vertex="1" parent="24">
                    <mxGeometry y="54" width="470" height="25" as="geometry"/>
                </mxCell>
                <mxCell id="25" value="" style="line;strokeWidth=1;fillColor=none;align=left;verticalAlign=middle;spacingTop=-1;spacingLeft=3;spacingRight=3;rotatable=0;labelPosition=right;points=[];portConstraint=eastwest;strokeColor=inherit;" vertex="1" parent="24">
                    <mxGeometry y="79" width="470" height="8" as="geometry"/>
                </mxCell>
                <mxCell id="27" value="CategoriaMenu" style="swimlane;fontStyle=1;align=center;verticalAlign=middle;childLayout=stackLayout;horizontal=1;startSize=29;horizontalStack=0;resizeParent=1;resizeParentMax=0;resizeLast=0;collapsible=0;marginBottom=0;html=1;" vertex="1" parent="1">
                    <mxGeometry x="958" y="2076" width="470" height="87" as="geometry"/>
                </mxCell>
                <mxCell id="76" value="- idCategoria, idRistorante, posizione: int" style="text;html=1;strokeColor=none;fillColor=none;align=left;verticalAlign=middle;spacingLeft=4;spacingRight=4;overflow=hidden;rotatable=0;points=[[0,0.5],[1,0.5]];portConstraint=eastwest;" vertex="1" parent="27">
                    <mxGeometry y="29" width="470" height="25" as="geometry"/>
                </mxCell>
                <mxCell id="77" value="- nome : String" style="text;html=1;strokeColor=none;fillColor=none;align=left;verticalAlign=middle;spacingLeft=4;spacingRight=4;overflow=hidden;rotatable=0;points=[[0,0.5],[1,0.5]];portConstraint=eastwest;" vertex="1" parent="27">
                    <mxGeometry y="54" width="470" height="25" as="geometry"/>
                </mxCell>
                <mxCell id="28" value="" style="line;strokeWidth=1;fillColor=none;align=left;verticalAlign=middle;spacingTop=-1;spacingLeft=3;spacingRight=3;rotatable=0;labelPosition=right;points=[];portConstraint=eastwest;strokeColor=inherit;" vertex="1" parent="27">
                    <mxGeometry y="79" width="470" height="8" as="geometry"/>
                </mxCell>
                <mxCell id="29" value="DatabaseConnection" style="swimlane;fontStyle=1;align=center;verticalAlign=middle;childLayout=stackLayout;horizontal=1;startSize=29;horizontalStack=0;resizeParent=1;resizeParentMax=0;resizeLast=0;collapsible=0;marginBottom=0;html=1;" vertex="1" parent="1">
                    <mxGeometry x="-26" y="1732" width="470" height="137" as="geometry"/>
                </mxCell>
                <mxCell id="213" value="- connection : Connection" style="text;html=1;strokeColor=none;fillColor=none;align=left;verticalAlign=middle;spacingLeft=4;spacingRight=4;overflow=hidden;rotatable=0;points=[[0,0.5],[1,0.5]];portConstraint=eastwest;" vertex="1" parent="29">
                    <mxGeometry y="29" width="470" height="25" as="geometry"/>
                </mxCell>
                <mxCell id="214" value="- databaseConnection: DatabaseConnection" style="text;html=1;strokeColor=none;fillColor=none;align=left;verticalAlign=middle;spacingLeft=4;spacingRight=4;overflow=hidden;rotatable=0;points=[[0,0.5],[1,0.5]];portConstraint=eastwest;" vertex="1" parent="29">
                    <mxGeometry y="54" width="470" height="25" as="geometry"/>
                </mxCell>
                <mxCell id="30" value="" style="line;strokeWidth=1;fillColor=none;align=left;verticalAlign=middle;spacingTop=-1;spacingLeft=3;spacingRight=3;rotatable=0;labelPosition=right;points=[];portConstraint=eastwest;strokeColor=inherit;" vertex="1" parent="29">
                    <mxGeometry y="79" width="470" height="8" as="geometry"/>
                </mxCell>
                <mxCell id="215" value="- getInstance() : DatabaseConnection&amp;nbsp;" style="text;html=1;strokeColor=none;fillColor=none;align=left;verticalAlign=middle;spacingLeft=4;spacingRight=4;overflow=hidden;rotatable=0;points=[[0,0.5],[1,0.5]];portConstraint=eastwest;" vertex="1" parent="29">
                    <mxGeometry y="87" width="470" height="25" as="geometry"/>
                </mxCell>
                <mxCell id="217" value="- getStatement() : Statement" style="text;html=1;strokeColor=none;fillColor=none;align=left;verticalAlign=middle;spacingLeft=4;spacingRight=4;overflow=hidden;rotatable=0;points=[[0,0.5],[1,0.5]];portConstraint=eastwest;" vertex="1" parent="29">
                    <mxGeometry y="112" width="470" height="25" as="geometry"/>
                </mxCell>
                <mxCell id="31" value="LoggedUser" style="swimlane;fontStyle=1;align=center;verticalAlign=middle;childLayout=stackLayout;horizontal=1;startSize=29;horizontalStack=0;resizeParent=1;resizeParentMax=0;resizeLast=0;collapsible=0;marginBottom=0;html=1;" vertex="1" parent="1">
                    <mxGeometry x="1065" y="3215" width="470" height="87" as="geometry"/>
                </mxCell>
                <mxCell id="218" value="- token : String" style="text;html=1;strokeColor=none;fillColor=none;align=left;verticalAlign=middle;spacingLeft=4;spacingRight=4;overflow=hidden;rotatable=0;points=[[0,0.5],[1,0.5]];portConstraint=eastwest;" vertex="1" parent="31">
                    <mxGeometry y="29" width="470" height="25" as="geometry"/>
                </mxCell>
                <mxCell id="219" value="- tokenExpirationTime : String" style="text;html=1;strokeColor=none;fillColor=none;align=left;verticalAlign=middle;spacingLeft=4;spacingRight=4;overflow=hidden;rotatable=0;points=[[0,0.5],[1,0.5]];portConstraint=eastwest;" vertex="1" parent="31">
                    <mxGeometry y="54" width="470" height="25" as="geometry"/>
                </mxCell>
                <mxCell id="32" value="" style="line;strokeWidth=1;fillColor=none;align=left;verticalAlign=middle;spacingTop=-1;spacingLeft=3;spacingRight=3;rotatable=0;labelPosition=right;points=[];portConstraint=eastwest;strokeColor=inherit;" vertex="1" parent="31">
                    <mxGeometry y="79" width="470" height="8" as="geometry"/>
                </mxCell>
                <mxCell id="33" value="Menu" style="swimlane;fontStyle=1;align=center;verticalAlign=middle;childLayout=stackLayout;horizontal=1;startSize=29;horizontalStack=0;resizeParent=1;resizeParentMax=0;resizeLast=0;collapsible=0;marginBottom=0;html=1;" vertex="1" parent="1">
                    <mxGeometry x="922" y="2284" width="470" height="112" as="geometry"/>
                </mxCell>
                <mxCell id="220" value="- nome, descrizione, allergeni, nomeSecondaLingua: String" style="text;html=1;strokeColor=none;fillColor=none;align=left;verticalAlign=middle;spacingLeft=4;spacingRight=4;overflow=hidden;rotatable=0;points=[[0,0.5],[1,0.5]];portConstraint=eastwest;" vertex="1" parent="33">
                    <mxGeometry y="29" width="470" height="25" as="geometry"/>
                </mxCell>
                <mxCell id="233" value="- idElemento, idRistorante, idCategoria : Integer" style="text;html=1;strokeColor=none;fillColor=none;align=left;verticalAlign=middle;spacingLeft=4;spacingRight=4;overflow=hidden;rotatable=0;points=[[0,0.5],[1,0.5]];portConstraint=eastwest;" vertex="1" parent="33">
                    <mxGeometry y="54" width="470" height="25" as="geometry"/>
                </mxCell>
                <mxCell id="234" value="- prezzo : Float" style="text;html=1;strokeColor=none;fillColor=none;align=left;verticalAlign=middle;spacingLeft=4;spacingRight=4;overflow=hidden;rotatable=0;points=[[0,0.5],[1,0.5]];portConstraint=eastwest;" vertex="1" parent="33">
                    <mxGeometry y="79" width="470" height="25" as="geometry"/>
                </mxCell>
                <mxCell id="34" value="" style="line;strokeWidth=1;fillColor=none;align=left;verticalAlign=middle;spacingTop=-1;spacingLeft=3;spacingRight=3;rotatable=0;labelPosition=right;points=[];portConstraint=eastwest;strokeColor=inherit;" vertex="1" parent="33">
                    <mxGeometry y="104" width="470" height="8" as="geometry"/>
                </mxCell>
                <mxCell id="35" value="Prodotto" style="swimlane;fontStyle=1;align=center;verticalAlign=middle;childLayout=stackLayout;horizontal=1;startSize=29;horizontalStack=0;resizeParent=1;resizeParentMax=0;resizeLast=0;collapsible=0;marginBottom=0;html=1;" vertex="1" parent="1">
                    <mxGeometry x="-980" y="2020" width="470" height="112" as="geometry"/>
                </mxCell>
                <mxCell id="235" value="- idProdotto, idRistorante, stato: Integer" style="text;html=1;strokeColor=none;fillColor=none;align=left;verticalAlign=middle;spacingLeft=4;spacingRight=4;overflow=hidden;rotatable=0;points=[[0,0.5],[1,0.5]];portConstraint=eastwest;" vertex="1" parent="35">
                    <mxGeometry y="29" width="470" height="25" as="geometry"/>
                </mxCell>
                <mxCell id="236" value="- nome, descrizione, unitaMisura, categoria: String" style="text;html=1;strokeColor=none;fillColor=none;align=left;verticalAlign=middle;spacingLeft=4;spacingRight=4;overflow=hidden;rotatable=0;points=[[0,0.5],[1,0.5]];portConstraint=eastwest;" vertex="1" parent="35">
                    <mxGeometry y="54" width="470" height="25" as="geometry"/>
                </mxCell>
                <mxCell id="237" value="- prezzo, quantita : Double" style="text;html=1;strokeColor=none;fillColor=none;align=left;verticalAlign=middle;spacingLeft=4;spacingRight=4;overflow=hidden;rotatable=0;points=[[0,0.5],[1,0.5]];portConstraint=eastwest;" vertex="1" parent="35">
                    <mxGeometry y="79" width="470" height="25" as="geometry"/>
                </mxCell>
                <mxCell id="36" value="" style="line;strokeWidth=1;fillColor=none;align=left;verticalAlign=middle;spacingTop=-1;spacingLeft=3;spacingRight=3;rotatable=0;labelPosition=right;points=[];portConstraint=eastwest;strokeColor=inherit;" vertex="1" parent="35">
                    <mxGeometry y="104" width="470" height="8" as="geometry"/>
                </mxCell>
                <mxCell id="37" value="User" style="swimlane;fontStyle=1;align=center;verticalAlign=middle;childLayout=stackLayout;horizontal=1;startSize=29;horizontalStack=0;resizeParent=1;resizeParentMax=0;resizeLast=0;collapsible=0;marginBottom=0;html=1;" vertex="1" parent="1">
                    <mxGeometry x="1065" y="3053" width="470" height="87" as="geometry"/>
                </mxCell>
                <mxCell id="238" value="- nome, cognome, dataNascita, dataAggiunta, email, password, ruolo: String" style="text;html=1;strokeColor=none;fillColor=none;align=left;verticalAlign=middle;spacingLeft=4;spacingRight=4;overflow=hidden;rotatable=0;points=[[0,0.5],[1,0.5]];portConstraint=eastwest;" vertex="1" parent="37">
                    <mxGeometry y="29" width="470" height="25" as="geometry"/>
                </mxCell>
                <mxCell id="239" value="- idUtente, aggiuntoDa, idRistorante: Integer" style="text;html=1;strokeColor=none;fillColor=none;align=left;verticalAlign=middle;spacingLeft=4;spacingRight=4;overflow=hidden;rotatable=0;points=[[0,0.5],[1,0.5]];portConstraint=eastwest;" vertex="1" parent="37">
                    <mxGeometry y="54" width="470" height="25" as="geometry"/>
                </mxCell>
                <mxCell id="38" value="" style="line;strokeWidth=1;fillColor=none;align=left;verticalAlign=middle;spacingTop=-1;spacingLeft=3;spacingRight=3;rotatable=0;labelPosition=right;points=[];portConstraint=eastwest;strokeColor=inherit;" vertex="1" parent="37">
                    <mxGeometry y="79" width="470" height="8" as="geometry"/>
                </mxCell>
                <mxCell id="39" value="CustomInterceptor" style="swimlane;fontStyle=1;align=center;verticalAlign=middle;childLayout=stackLayout;horizontal=1;startSize=29;horizontalStack=0;resizeParent=1;resizeParentMax=0;resizeLast=0;collapsible=0;marginBottom=0;html=1;" vertex="1" parent="1">
                    <mxGeometry x="1450" y="3680" width="470" height="162" as="geometry"/>
                </mxCell>
                <mxCell id="40" value="" style="line;strokeWidth=1;fillColor=none;align=left;verticalAlign=middle;spacingTop=-1;spacingLeft=3;spacingRight=3;rotatable=0;labelPosition=right;points=[];portConstraint=eastwest;strokeColor=inherit;" vertex="1" parent="39">
                    <mxGeometry y="29" width="470" height="8" as="geometry"/>
                </mxCell>
                <mxCell id="248" value="- setupLoggedUser() : void" style="text;html=1;strokeColor=none;fillColor=none;align=left;verticalAlign=middle;spacingLeft=4;spacingRight=4;overflow=hidden;rotatable=0;points=[[0,0.5],[1,0.5]];portConstraint=eastwest;" vertex="1" parent="39">
                    <mxGeometry y="37" width="470" height="25" as="geometry"/>
                </mxCell>
                <mxCell id="249" value="- generateExpirationTime() : String" style="text;html=1;strokeColor=none;fillColor=none;align=left;verticalAlign=middle;spacingLeft=4;spacingRight=4;overflow=hidden;rotatable=0;points=[[0,0.5],[1,0.5]];portConstraint=eastwest;" vertex="1" parent="39">
                    <mxGeometry y="62" width="470" height="25" as="geometry"/>
                </mxCell>
                <mxCell id="250" value="- isValidToken() : boolean" style="text;html=1;strokeColor=none;fillColor=none;align=left;verticalAlign=middle;spacingLeft=4;spacingRight=4;overflow=hidden;rotatable=0;points=[[0,0.5],[1,0.5]];portConstraint=eastwest;" vertex="1" parent="39">
                    <mxGeometry y="87" width="470" height="25" as="geometry"/>
                </mxCell>
                <mxCell id="251" value="- generateToken() : String" style="text;html=1;strokeColor=none;fillColor=none;align=left;verticalAlign=middle;spacingLeft=4;spacingRight=4;overflow=hidden;rotatable=0;points=[[0,0.5],[1,0.5]];portConstraint=eastwest;" vertex="1" parent="39">
                    <mxGeometry y="112" width="470" height="25" as="geometry"/>
                </mxCell>
                <mxCell id="252" value="- removeLoggedUser() : LoggedUser" style="text;html=1;strokeColor=none;fillColor=none;align=left;verticalAlign=middle;spacingLeft=4;spacingRight=4;overflow=hidden;rotatable=0;points=[[0,0.5],[1,0.5]];portConstraint=eastwest;" vertex="1" parent="39">
                    <mxGeometry y="137" width="470" height="25" as="geometry"/>
                </mxCell>
                <mxCell id="41" value="WebMvcConfig" style="swimlane;fontStyle=1;align=center;verticalAlign=middle;childLayout=stackLayout;horizontal=1;startSize=29;horizontalStack=0;resizeParent=1;resizeParentMax=0;resizeLast=0;collapsible=0;marginBottom=0;html=1;" vertex="1" parent="1">
                    <mxGeometry x="1880" y="3350" width="470" height="62" as="geometry"/>
                </mxCell>
                <mxCell id="42" value="" style="line;strokeWidth=1;fillColor=none;align=left;verticalAlign=middle;spacingTop=-1;spacingLeft=3;spacingRight=3;rotatable=0;labelPosition=right;points=[];portConstraint=eastwest;strokeColor=inherit;" vertex="1" parent="41">
                    <mxGeometry y="29" width="470" height="8" as="geometry"/>
                </mxCell>
                <mxCell id="253" value="+ addInterceptors() : LoggedUser" style="text;html=1;strokeColor=none;fillColor=none;align=left;verticalAlign=middle;spacingLeft=4;spacingRight=4;overflow=hidden;rotatable=0;points=[[0,0.5],[1,0.5]];portConstraint=eastwest;" vertex="1" parent="41">
                    <mxGeometry y="37" width="470" height="25" as="geometry"/>
                </mxCell>
                <mxCell id="221" style="edgeStyle=none;html=1;" edge="1" parent="1" source="17" target="43">
                    <mxGeometry relative="1" as="geometry">
                        <mxPoint x="-604" y="2669" as="targetPoint"/>
                    </mxGeometry>
                </mxCell>
                <mxCell id="227" value="1" style="edgeLabel;html=1;align=center;verticalAlign=middle;resizable=0;points=[];" connectable="0" vertex="1" parent="221">
                    <mxGeometry x="0.6548" y="1" relative="1" as="geometry">
                        <mxPoint as="offset"/>
                    </mxGeometry>
                </mxCell>
                <mxCell id="43" value="AvvisoDAOImp" style="swimlane;fontStyle=1;align=center;verticalAlign=middle;childLayout=stackLayout;horizontal=1;startSize=29;horizontalStack=0;resizeParent=1;resizeParentMax=0;resizeLast=0;collapsible=0;marginBottom=0;html=1;" vertex="1" parent="1">
                    <mxGeometry x="-921" y="2487" width="470" height="37" as="geometry"/>
                </mxCell>
                <mxCell id="44" value="" style="line;strokeWidth=1;fillColor=none;align=left;verticalAlign=middle;spacingTop=-1;spacingLeft=3;spacingRight=3;rotatable=0;labelPosition=right;points=[];portConstraint=eastwest;strokeColor=inherit;" vertex="1" parent="43">
                    <mxGeometry y="29" width="470" height="8" as="geometry"/>
                </mxCell>
                <mxCell id="226" style="edgeStyle=none;html=1;" edge="1" parent="1" source="17" target="45">
                    <mxGeometry relative="1" as="geometry">
                        <mxPoint x="42" y="4025" as="targetPoint"/>
                        <mxPoint x="-92" y="4051" as="sourcePoint"/>
                    </mxGeometry>
                </mxCell>
                <mxCell id="232" value="1" style="edgeLabel;html=1;align=center;verticalAlign=middle;resizable=0;points=[];" connectable="0" vertex="1" parent="226">
                    <mxGeometry x="0.7807" y="-4" relative="1" as="geometry">
                        <mxPoint as="offset"/>
                    </mxGeometry>
                </mxCell>
                <mxCell id="45" value="BusinessDAOImp" style="swimlane;fontStyle=1;align=center;verticalAlign=middle;childLayout=stackLayout;horizontal=1;startSize=29;horizontalStack=0;resizeParent=1;resizeParentMax=0;resizeLast=0;collapsible=0;marginBottom=0;html=1;" vertex="1" parent="1">
                    <mxGeometry x="-1056" y="2960" width="470" height="37" as="geometry"/>
                </mxCell>
                <mxCell id="46" value="" style="line;strokeWidth=1;fillColor=none;align=left;verticalAlign=middle;spacingTop=-1;spacingLeft=3;spacingRight=3;rotatable=0;labelPosition=right;points=[];portConstraint=eastwest;strokeColor=inherit;" vertex="1" parent="45">
                    <mxGeometry y="29" width="470" height="8" as="geometry"/>
                </mxCell>
                <mxCell id="223" style="edgeStyle=none;html=1;" edge="1" parent="1" source="17" target="47">
                    <mxGeometry relative="1" as="geometry">
                        <mxPoint x="405" y="2417" as="targetPoint"/>
                        <mxPoint x="624" y="2400" as="sourcePoint"/>
                    </mxGeometry>
                </mxCell>
                <mxCell id="229" value="1" style="edgeLabel;html=1;align=center;verticalAlign=middle;resizable=0;points=[];" connectable="0" vertex="1" parent="223">
                    <mxGeometry x="0.6968" y="-1" relative="1" as="geometry">
                        <mxPoint x="1" as="offset"/>
                    </mxGeometry>
                </mxCell>
                <mxCell id="47" value="CategoriaMenuDAOImp" style="swimlane;fontStyle=1;align=center;verticalAlign=middle;childLayout=stackLayout;horizontal=1;startSize=29;horizontalStack=0;resizeParent=1;resizeParentMax=0;resizeLast=0;collapsible=0;marginBottom=0;html=1;" vertex="1" parent="1">
                    <mxGeometry x="364" y="2307" width="470" height="37" as="geometry"/>
                </mxCell>
                <mxCell id="48" value="" style="line;strokeWidth=1;fillColor=none;align=left;verticalAlign=middle;spacingTop=-1;spacingLeft=3;spacingRight=3;rotatable=0;labelPosition=right;points=[];portConstraint=eastwest;strokeColor=inherit;" vertex="1" parent="47">
                    <mxGeometry y="29" width="470" height="8" as="geometry"/>
                </mxCell>
                <mxCell id="224" style="edgeStyle=none;html=1;" edge="1" parent="1" source="17" target="49">
                    <mxGeometry relative="1" as="geometry">
                        <mxPoint x="955" y="2579" as="targetPoint"/>
                    </mxGeometry>
                </mxCell>
                <mxCell id="49" value="MenuDAOImp" style="swimlane;fontStyle=1;align=center;verticalAlign=middle;childLayout=stackLayout;horizontal=1;startSize=29;horizontalStack=0;resizeParent=1;resizeParentMax=0;resizeLast=0;collapsible=0;marginBottom=0;html=1;" vertex="1" parent="1">
                    <mxGeometry x="911" y="2490" width="470" height="37" as="geometry"/>
                </mxCell>
                <mxCell id="50" value="" style="line;strokeWidth=1;fillColor=none;align=left;verticalAlign=middle;spacingTop=-1;spacingLeft=3;spacingRight=3;rotatable=0;labelPosition=right;points=[];portConstraint=eastwest;strokeColor=inherit;" vertex="1" parent="49">
                    <mxGeometry y="29" width="470" height="8" as="geometry"/>
                </mxCell>
                <mxCell id="222" style="edgeStyle=none;html=1;" edge="1" parent="1" source="17" target="51">
                    <mxGeometry relative="1" as="geometry">
                        <mxPoint x="-40" y="2375" as="targetPoint"/>
                    </mxGeometry>
                </mxCell>
                <mxCell id="228" value="1" style="edgeLabel;html=1;align=center;verticalAlign=middle;resizable=0;points=[];" connectable="0" vertex="1" parent="222">
                    <mxGeometry x="0.8022" y="-1" relative="1" as="geometry">
                        <mxPoint x="-1" as="offset"/>
                    </mxGeometry>
                </mxCell>
                <mxCell id="51" value="ProdottoDAOImp" style="swimlane;fontStyle=1;align=center;verticalAlign=middle;childLayout=stackLayout;horizontal=1;startSize=29;horizontalStack=0;resizeParent=1;resizeParentMax=0;resizeLast=0;collapsible=0;marginBottom=0;html=1;" vertex="1" parent="1">
                    <mxGeometry x="-386" y="2310" width="470" height="37" as="geometry"/>
                </mxCell>
                <mxCell id="52" value="" style="line;strokeWidth=1;fillColor=none;align=left;verticalAlign=middle;spacingTop=-1;spacingLeft=3;spacingRight=3;rotatable=0;labelPosition=right;points=[];portConstraint=eastwest;strokeColor=inherit;" vertex="1" parent="51">
                    <mxGeometry y="29" width="470" height="8" as="geometry"/>
                </mxCell>
                <mxCell id="225" style="edgeStyle=none;html=1;" edge="1" parent="1" source="17" target="53">
                    <mxGeometry relative="1" as="geometry">
                        <mxPoint x="323" y="4072" as="targetPoint"/>
                        <mxPoint x="533" y="4076" as="sourcePoint"/>
                    </mxGeometry>
                </mxCell>
                <mxCell id="231" value="1" style="edgeLabel;html=1;align=center;verticalAlign=middle;resizable=0;points=[];" connectable="0" vertex="1" parent="225">
                    <mxGeometry x="0.6139" y="1" relative="1" as="geometry">
                        <mxPoint as="offset"/>
                    </mxGeometry>
                </mxCell>
                <mxCell id="53" value="UserDAOImp" style="swimlane;fontStyle=1;align=center;verticalAlign=middle;childLayout=stackLayout;horizontal=1;startSize=29;horizontalStack=0;resizeParent=1;resizeParentMax=0;resizeLast=0;collapsible=0;marginBottom=0;html=1;" vertex="1" parent="1">
                    <mxGeometry x="1007" y="2807.9999999999995" width="470" height="37" as="geometry"/>
                </mxCell>
                <mxCell id="54" value="" style="line;strokeWidth=1;fillColor=none;align=left;verticalAlign=middle;spacingTop=-1;spacingLeft=3;spacingRight=3;rotatable=0;labelPosition=right;points=[];portConstraint=eastwest;strokeColor=inherit;" vertex="1" parent="53">
                    <mxGeometry y="29" width="470" height="8" as="geometry"/>
                </mxCell>
                <mxCell id="55" value="&amp;lt;&amp;lt;interface&amp;gt;&amp;gt;&lt;br&gt;AvvisoDAOInt" style="swimlane;fontStyle=1;align=center;verticalAlign=middle;childLayout=stackLayout;horizontal=1;startSize=29;horizontalStack=0;resizeParent=1;resizeParentMax=0;resizeLast=0;collapsible=0;marginBottom=0;html=1;" vertex="1" parent="1">
                    <mxGeometry x="-1471" y="2120" width="470" height="287" as="geometry"/>
                </mxCell>
                <mxCell id="56" value="" style="line;strokeWidth=1;fillColor=none;align=left;verticalAlign=middle;spacingTop=-1;spacingLeft=3;spacingRight=3;rotatable=0;labelPosition=right;points=[];portConstraint=eastwest;strokeColor=inherit;" vertex="1" parent="55">
                    <mxGeometry y="29" width="470" height="8" as="geometry"/>
                </mxCell>
                <mxCell id="178" value="+ deleteAvviso(idAvviso: Integer): boolean" style="text;html=1;strokeColor=none;fillColor=none;align=left;verticalAlign=middle;spacingLeft=4;spacingRight=4;overflow=hidden;rotatable=0;points=[[0,0.5],[1,0.5]];portConstraint=eastwest;" vertex="1" parent="55">
                    <mxGeometry y="37" width="470" height="25" as="geometry"/>
                </mxCell>
                <mxCell id="177" value="+ createNewAvviso(idRistorante: Integer, testo: String) : Avviso" style="text;html=1;strokeColor=none;fillColor=none;align=left;verticalAlign=middle;spacingLeft=4;spacingRight=4;overflow=hidden;rotatable=0;points=[[0,0.5],[1,0.5]];portConstraint=eastwest;" vertex="1" parent="55">
                    <mxGeometry y="62" width="470" height="25" as="geometry"/>
                </mxCell>
                <mxCell id="176" value="+ getNumberOfAvvisiToRead(idUtente: Integer, idRistorante: Integer): Integer" style="text;html=1;strokeColor=none;fillColor=none;align=left;verticalAlign=middle;spacingLeft=4;spacingRight=4;overflow=hidden;rotatable=0;points=[[0,0.5],[1,0.5]];portConstraint=eastwest;" vertex="1" parent="55">
                    <mxGeometry y="87" width="470" height="25" as="geometry"/>
                </mxCell>
                <mxCell id="175" value="+ setAvvisoNotHidden(idAvviso: Integer): AvvisoNascostoVisto" style="text;html=1;strokeColor=none;fillColor=none;align=left;verticalAlign=middle;spacingLeft=4;spacingRight=4;overflow=hidden;rotatable=0;points=[[0,0.5],[1,0.5]];portConstraint=eastwest;" vertex="1" parent="55">
                    <mxGeometry y="112" width="470" height="25" as="geometry"/>
                </mxCell>
                <mxCell id="174" value="+ setAvvisoHidden(idAvviso: Integer): AvvisoNascostoVisto" style="text;html=1;strokeColor=none;fillColor=none;align=left;verticalAlign=middle;spacingLeft=4;spacingRight=4;overflow=hidden;rotatable=0;points=[[0,0.5],[1,0.5]];portConstraint=eastwest;" vertex="1" parent="55">
                    <mxGeometry y="137" width="470" height="25" as="geometry"/>
                </mxCell>
                <mxCell id="173" value="+ setAvvisoNotViewed(idAvviso: Integer): AvvisoNascostoVisto" style="text;html=1;strokeColor=none;fillColor=none;align=left;verticalAlign=middle;spacingLeft=4;spacingRight=4;overflow=hidden;rotatable=0;points=[[0,0.5],[1,0.5]];portConstraint=eastwest;" vertex="1" parent="55">
                    <mxGeometry y="162" width="470" height="25" as="geometry"/>
                </mxCell>
                <mxCell id="172" value="+ setAvvisoViewed(idAvviso: Integer): AvvisoNascostoVisto" style="text;html=1;strokeColor=none;fillColor=none;align=left;verticalAlign=middle;spacingLeft=4;spacingRight=4;overflow=hidden;rotatable=0;points=[[0,0.5],[1,0.5]];portConstraint=eastwest;" vertex="1" parent="55">
                    <mxGeometry y="187" width="470" height="25" as="geometry"/>
                </mxCell>
                <mxCell id="171" value="+ getAvvisiHidden(idUtente: Integer): ArrayList&amp;lt;AvvisoNascostoVisto&amp;gt;" style="text;html=1;strokeColor=none;fillColor=none;align=left;verticalAlign=middle;spacingLeft=4;spacingRight=4;overflow=hidden;rotatable=0;points=[[0,0.5],[1,0.5]];portConstraint=eastwest;" vertex="1" parent="55">
                    <mxGeometry y="212" width="470" height="25" as="geometry"/>
                </mxCell>
                <mxCell id="170" value="+ getAvvisiViewed(idUtente: Integer): ArrayList&amp;lt;AvvisoNascostoVisto&amp;gt;" style="text;html=1;strokeColor=none;fillColor=none;align=left;verticalAlign=middle;spacingLeft=4;spacingRight=4;overflow=hidden;rotatable=0;points=[[0,0.5],[1,0.5]];portConstraint=eastwest;" vertex="1" parent="55">
                    <mxGeometry y="237" width="470" height="25" as="geometry"/>
                </mxCell>
                <mxCell id="169" value="+ getAvvisi(idRistorante: Integer): ArrayList&amp;lt;Avviso&amp;gt;" style="text;html=1;strokeColor=none;fillColor=none;align=left;verticalAlign=middle;spacingLeft=4;spacingRight=4;overflow=hidden;rotatable=0;points=[[0,0.5],[1,0.5]];portConstraint=eastwest;" vertex="1" parent="55">
                    <mxGeometry y="262" width="470" height="25" as="geometry"/>
                </mxCell>
                <mxCell id="57" value="&amp;lt;&amp;lt;interface&amp;gt;&amp;gt;&lt;br&gt;BusinessDAOInt" style="swimlane;fontStyle=1;align=center;verticalAlign=middle;childLayout=stackLayout;horizontal=1;startSize=29;horizontalStack=0;resizeParent=1;resizeParentMax=0;resizeLast=0;collapsible=0;marginBottom=0;html=1;" vertex="1" parent="1">
                    <mxGeometry x="-1620" y="2910" width="470" height="137" as="geometry"/>
                </mxCell>
                <mxCell id="58" value="" style="line;strokeWidth=1;fillColor=none;align=left;verticalAlign=middle;spacingTop=-1;spacingLeft=3;spacingRight=3;rotatable=0;labelPosition=right;points=[];portConstraint=eastwest;strokeColor=inherit;" vertex="1" parent="57">
                    <mxGeometry y="29" width="470" height="8" as="geometry"/>
                </mxCell>
                <mxCell id="211" value="+ getBusinessImage(): String" style="text;html=1;strokeColor=none;fillColor=none;align=left;verticalAlign=middle;spacingLeft=4;spacingRight=4;overflow=hidden;rotatable=0;points=[[0,0.5],[1,0.5]];portConstraint=eastwest;" vertex="1" parent="57">
                    <mxGeometry y="37" width="470" height="25" as="geometry"/>
                </mxCell>
                <mxCell id="210" value="+ saveBusinessImage(image : MultipartFile, fileName : String): void" style="text;html=1;strokeColor=none;fillColor=none;align=left;verticalAlign=middle;spacingLeft=4;spacingRight=4;overflow=hidden;rotatable=0;points=[[0,0.5],[1,0.5]];portConstraint=eastwest;" vertex="1" parent="57">
                    <mxGeometry y="62" width="470" height="25" as="geometry"/>
                </mxCell>
                <mxCell id="209" value="+ modifyBusinessInfo(id_ristorante : Integer, nome : String, numeroTelefono : String, indirizzo : String): Business" style="text;html=1;strokeColor=none;fillColor=none;align=left;verticalAlign=middle;spacingLeft=4;spacingRight=4;overflow=hidden;rotatable=0;points=[[0,0.5],[1,0.5]];portConstraint=eastwest;" vertex="1" parent="57">
                    <mxGeometry y="87" width="470" height="25" as="geometry"/>
                </mxCell>
                <mxCell id="208" value="+ getBusinessFromId(id_ristorante : Integer): Business" style="text;html=1;strokeColor=none;fillColor=none;align=left;verticalAlign=middle;spacingLeft=4;spacingRight=4;overflow=hidden;rotatable=0;points=[[0,0.5],[1,0.5]];portConstraint=eastwest;" vertex="1" parent="57">
                    <mxGeometry y="112" width="470" height="25" as="geometry"/>
                </mxCell>
                <mxCell id="59" value="&amp;lt;&amp;lt;interface&amp;gt;&amp;gt;&lt;br&gt;CategoriaMenuDAOInt" style="swimlane;fontStyle=1;align=center;verticalAlign=middle;childLayout=stackLayout;horizontal=1;startSize=29;horizontalStack=0;resizeParent=1;resizeParentMax=0;resizeLast=0;collapsible=0;marginBottom=0;html=1;" vertex="1" parent="1">
                    <mxGeometry x="370" y="2029" width="470" height="137" as="geometry"/>
                </mxCell>
                <mxCell id="60" value="" style="line;strokeWidth=1;fillColor=none;align=left;verticalAlign=middle;spacingTop=-1;spacingLeft=3;spacingRight=3;rotatable=0;labelPosition=right;points=[];portConstraint=eastwest;strokeColor=inherit;" vertex="1" parent="59">
                    <mxGeometry y="29" width="470" height="8" as="geometry"/>
                </mxCell>
                <mxCell id="189" value="+ createCategoria(nomeCategoriaNuova: String, idRistorante: Integer): boolean" style="text;html=1;strokeColor=none;fillColor=none;align=left;verticalAlign=middle;spacingLeft=4;spacingRight=4;overflow=hidden;rotatable=0;points=[[0,0.5],[1,0.5]];portConstraint=eastwest;" vertex="1" parent="59">
                    <mxGeometry y="37" width="470" height="25" as="geometry"/>
                </mxCell>
                <mxCell id="182" value="+ getMenuPlateByCategoria(idRistorante: Integer, categoria: String) : ArrayList&amp;lt;Menu&amp;gt;" style="text;html=1;strokeColor=none;fillColor=none;align=left;verticalAlign=middle;spacingLeft=4;spacingRight=4;overflow=hidden;rotatable=0;points=[[0,0.5],[1,0.5]];portConstraint=eastwest;" vertex="1" parent="59">
                    <mxGeometry y="62" width="470" height="25" as="geometry"/>
                </mxCell>
                <mxCell id="181" value="+ getMenuCategories(idRistorante: Integer): ArrayList&amp;lt;CategoriaMenu&amp;gt;" style="text;html=1;strokeColor=none;fillColor=none;align=left;verticalAlign=middle;spacingLeft=4;spacingRight=4;overflow=hidden;rotatable=0;points=[[0,0.5],[1,0.5]];portConstraint=eastwest;" vertex="1" parent="59">
                    <mxGeometry y="87" width="470" height="25" as="geometry"/>
                </mxCell>
                <mxCell id="185" value="+ updatePosizioneCategoria(idCategoria: Integer, posizione: Integer) : boolean" style="text;html=1;strokeColor=none;fillColor=none;align=left;verticalAlign=middle;spacingLeft=4;spacingRight=4;overflow=hidden;rotatable=0;points=[[0,0.5],[1,0.5]];portConstraint=eastwest;" vertex="1" parent="59">
                    <mxGeometry y="112" width="470" height="25" as="geometry"/>
                </mxCell>
                <mxCell id="61" value="&amp;lt;&amp;lt;interface&amp;gt;&amp;gt;&lt;br&gt;MenuDAOInt" style="swimlane;fontStyle=1;align=center;verticalAlign=middle;childLayout=stackLayout;horizontal=1;startSize=29;horizontalStack=0;resizeParent=1;resizeParentMax=0;resizeLast=0;collapsible=0;marginBottom=0;html=1;" vertex="1" parent="1">
                    <mxGeometry x="1469" y="2225" width="470" height="287" as="geometry"/>
                </mxCell>
                <mxCell id="62" value="" style="line;strokeWidth=1;fillColor=none;align=left;verticalAlign=middle;spacingTop=-1;spacingLeft=3;spacingRight=3;rotatable=0;labelPosition=right;points=[];portConstraint=eastwest;strokeColor=inherit;" vertex="1" parent="61">
                    <mxGeometry y="29" width="470" height="8" as="geometry"/>
                </mxCell>
                <mxCell id="180" value="+ getMenu(idRistorante: Integer): ArrayList&amp;lt;Menu&amp;gt;" style="text;html=1;strokeColor=none;fillColor=none;align=left;verticalAlign=middle;spacingLeft=4;spacingRight=4;overflow=hidden;rotatable=0;points=[[0,0.5],[1,0.5]];portConstraint=eastwest;" vertex="1" parent="61">
                    <mxGeometry y="37" width="470" height="25" as="geometry"/>
                </mxCell>
                <mxCell id="193" value="+ addSecondLanguage(idRistorante : Integer, idProdotto : Integer, nomeSecondaLingua : String, descrizioneSecondaLingua : String): Menu" style="text;html=1;strokeColor=none;fillColor=none;align=left;verticalAlign=middle;spacingLeft=4;spacingRight=4;overflow=hidden;rotatable=0;points=[[0,0.5],[1,0.5]];portConstraint=eastwest;" vertex="1" parent="61">
                    <mxGeometry y="62" width="470" height="25" as="geometry"/>
                </mxCell>
                <mxCell id="192" value="+ deletePlate(idPiatto : Integer): boolean" style="text;html=1;strokeColor=none;fillColor=none;align=left;verticalAlign=middle;spacingLeft=4;spacingRight=4;overflow=hidden;rotatable=0;points=[[0,0.5],[1,0.5]];portConstraint=eastwest;" vertex="1" parent="61">
                    <mxGeometry y="87" width="470" height="25" as="geometry"/>
                </mxCell>
                <mxCell id="191" value="+ updatePlate(idPiatto: Integer, idRistorante : Integer, categoria : String, nome: String, prezzo: float, descrizione : String, allergeni : String, nomeSecondaLingua : String, descrizioneSecondaLingua : String): boolean" style="text;html=1;strokeColor=none;fillColor=none;align=left;verticalAlign=middle;spacingLeft=4;spacingRight=4;overflow=hidden;rotatable=0;points=[[0,0.5],[1,0.5]];portConstraint=eastwest;" vertex="1" parent="61">
                    <mxGeometry y="112" width="470" height="25" as="geometry"/>
                </mxCell>
                <mxCell id="190" value="+ createPlate(idRistorante : Integer, categoria : String, nome: String, prezzo: float, descrizione : String, allergeni : String, nomeSecondaLingua : String, descrizioneSecondaLingua : String): boolean" style="text;html=1;strokeColor=none;fillColor=none;align=left;verticalAlign=middle;spacingLeft=4;spacingRight=4;overflow=hidden;rotatable=0;points=[[0,0.5],[1,0.5]];portConstraint=eastwest;" vertex="1" parent="61">
                    <mxGeometry y="137" width="470" height="25" as="geometry"/>
                </mxCell>
                <mxCell id="188" value="+ getMenuPlateByName(nomePiatto: String) : User" style="text;html=1;strokeColor=none;fillColor=none;align=left;verticalAlign=middle;spacingLeft=4;spacingRight=4;overflow=hidden;rotatable=0;points=[[0,0.5],[1,0.5]];portConstraint=eastwest;" vertex="1" parent="61">
                    <mxGeometry y="162" width="470" height="25" as="geometry"/>
                </mxCell>
                <mxCell id="187" value="+ getPlateById(idPiatto: Integer): Menu" style="text;html=1;strokeColor=none;fillColor=none;align=left;verticalAlign=middle;spacingLeft=4;spacingRight=4;overflow=hidden;rotatable=0;points=[[0,0.5],[1,0.5]];portConstraint=eastwest;" vertex="1" parent="61">
                    <mxGeometry y="187" width="470" height="25" as="geometry"/>
                </mxCell>
                <mxCell id="186" value="+ getMenuPlateFromResturant(idRistorante: Integer, nomePiatto: String): ArrayList&amp;lt;Menu&amp;gt;" style="text;html=1;strokeColor=none;fillColor=none;align=left;verticalAlign=middle;spacingLeft=4;spacingRight=4;overflow=hidden;rotatable=0;points=[[0,0.5],[1,0.5]];portConstraint=eastwest;" vertex="1" parent="61">
                    <mxGeometry y="212" width="470" height="25" as="geometry"/>
                </mxCell>
                <mxCell id="184" value="+ deleteSortingMenu(idRistorante: Integer) : boolean" style="text;html=1;strokeColor=none;fillColor=none;align=left;verticalAlign=middle;spacingLeft=4;spacingRight=4;overflow=hidden;rotatable=0;points=[[0,0.5],[1,0.5]];portConstraint=eastwest;" vertex="1" parent="61">
                    <mxGeometry y="237" width="470" height="25" as="geometry"/>
                </mxCell>
                <mxCell id="183" value="+ updatePosizionePiatto(idPiatto: Integer, posizione: Integer): boolean" style="text;html=1;strokeColor=none;fillColor=none;align=left;verticalAlign=middle;spacingLeft=4;spacingRight=4;overflow=hidden;rotatable=0;points=[[0,0.5],[1,0.5]];portConstraint=eastwest;" vertex="1" parent="61">
                    <mxGeometry y="262" width="470" height="25" as="geometry"/>
                </mxCell>
                <mxCell id="63" value="&amp;lt;&amp;lt;interface&amp;gt;&amp;gt;&lt;br&gt;ProdottoDAOInt" style="swimlane;fontStyle=1;align=center;verticalAlign=middle;childLayout=stackLayout;horizontal=1;startSize=29;horizontalStack=0;resizeParent=1;resizeParentMax=0;resizeLast=0;collapsible=0;marginBottom=0;html=1;" vertex="1" parent="1">
                    <mxGeometry x="-412" y="1988" width="470" height="212" as="geometry"/>
                </mxCell>
                <mxCell id="64" value="" style="line;strokeWidth=1;fillColor=none;align=left;verticalAlign=middle;spacingTop=-1;spacingLeft=3;spacingRight=3;rotatable=0;labelPosition=right;points=[];portConstraint=eastwest;strokeColor=inherit;" vertex="1" parent="63">
                    <mxGeometry y="29" width="470" height="8" as="geometry"/>
                </mxCell>
                <mxCell id="202" value="+ deleteProduct(idProdotto : Integer): Prodotto" style="text;html=1;strokeColor=none;fillColor=none;align=left;verticalAlign=middle;spacingLeft=4;spacingRight=4;overflow=hidden;rotatable=0;points=[[0,0.5],[1,0.5]];portConstraint=eastwest;" vertex="1" parent="63">
                    <mxGeometry y="37" width="470" height="25" as="geometry"/>
                </mxCell>
                <mxCell id="201" value="+ modifyProduct(idProdotto: Integer, nomeProdotto : String, stato : Integer, descrizione : String, prezzo : Double, quantita : Double, unitaMisura : String, categoria : String): Prodotto" style="text;html=1;strokeColor=none;fillColor=none;align=left;verticalAlign=middle;spacingLeft=4;spacingRight=4;overflow=hidden;rotatable=0;points=[[0,0.5],[1,0.5]];portConstraint=eastwest;" vertex="1" parent="63">
                    <mxGeometry y="62" width="470" height="25" as="geometry"/>
                </mxCell>
                <mxCell id="200" value="+ createProduct(idProdotto: Integer, nomeProdotto : String, stato : Integer, descrizione : String, prezzo : Double, quantita : Double, unitaMisura : String, categoria : String): Prodotto" style="text;html=1;strokeColor=none;fillColor=none;align=left;verticalAlign=middle;spacingLeft=4;spacingRight=4;overflow=hidden;rotatable=0;points=[[0,0.5],[1,0.5]];portConstraint=eastwest;" vertex="1" parent="63">
                    <mxGeometry y="87" width="470" height="25" as="geometry"/>
                </mxCell>
                <mxCell id="199" value="+ getAvaibleDispensaProduct(idRistorante : integer): ArrayList&amp;lt;Prodotto&amp;gt;" style="text;html=1;strokeColor=none;fillColor=none;align=left;verticalAlign=middle;spacingLeft=4;spacingRight=4;overflow=hidden;rotatable=0;points=[[0,0.5],[1,0.5]];portConstraint=eastwest;" vertex="1" parent="63">
                    <mxGeometry y="112" width="470" height="25" as="geometry"/>
                </mxCell>
                <mxCell id="198" value="+ getDispensaProductsByName(idRistorante : Integer, nomeProdotto : String): ArrayList&amp;lt;Prodotto&amp;gt;" style="text;html=1;strokeColor=none;fillColor=none;align=left;verticalAlign=middle;spacingLeft=4;spacingRight=4;overflow=hidden;rotatable=0;points=[[0,0.5],[1,0.5]];portConstraint=eastwest;" vertex="1" parent="63">
                    <mxGeometry y="137" width="470" height="25" as="geometry"/>
                </mxCell>
                <mxCell id="197" value="+ getDispensaProductsByCategory(idRistorante : Integer, categoria : String): ArrayList&amp;lt;Prodotto&amp;gt;" style="text;html=1;strokeColor=none;fillColor=none;align=left;verticalAlign=middle;spacingLeft=4;spacingRight=4;overflow=hidden;rotatable=0;points=[[0,0.5],[1,0.5]];portConstraint=eastwest;" vertex="1" parent="63">
                    <mxGeometry y="162" width="470" height="25" as="geometry"/>
                </mxCell>
                <mxCell id="196" value="+ getDispensa(idRistorante : Integer): ArrayList&amp;lt;Prodotto&amp;gt;" style="text;html=1;strokeColor=none;fillColor=none;align=left;verticalAlign=middle;spacingLeft=4;spacingRight=4;overflow=hidden;rotatable=0;points=[[0,0.5],[1,0.5]];portConstraint=eastwest;" vertex="1" parent="63">
                    <mxGeometry y="187" width="470" height="25" as="geometry"/>
                </mxCell>
                <mxCell id="65" value="&amp;lt;&amp;lt;interface&amp;gt;&amp;gt;&lt;br&gt;UserDAOInt" style="swimlane;fontStyle=1;align=center;verticalAlign=middle;childLayout=stackLayout;horizontal=1;startSize=29;horizontalStack=0;resizeParent=1;resizeParentMax=0;resizeLast=0;collapsible=0;marginBottom=0;html=1;" vertex="1" parent="1">
                    <mxGeometry x="1604" y="2645.4999999999995" width="470" height="362" as="geometry"/>
                </mxCell>
                <mxCell id="66" value="" style="line;strokeWidth=1;fillColor=none;align=left;verticalAlign=middle;spacingTop=-1;spacingLeft=3;spacingRight=3;rotatable=0;labelPosition=right;points=[];portConstraint=eastwest;strokeColor=inherit;" vertex="1" parent="65">
                    <mxGeometry y="29" width="470" height="8" as="geometry"/>
                </mxCell>
                <mxCell id="154" value="+ getUser(idRistorante: Integer): ArrayList&amp;lt;User&amp;gt;" style="text;html=1;strokeColor=none;fillColor=none;align=left;verticalAlign=middle;spacingLeft=4;spacingRight=4;overflow=hidden;rotatable=0;points=[[0,0.5],[1,0.5]];portConstraint=eastwest;" vertex="1" parent="65">
                    <mxGeometry y="37" width="470" height="25" as="geometry"/>
                </mxCell>
                <mxCell id="155" value="+ modifyUserAccount(nome: String, cognome: String, dataNascita: String): User" style="text;html=1;strokeColor=none;fillColor=none;align=left;verticalAlign=middle;spacingLeft=4;spacingRight=4;overflow=hidden;rotatable=0;points=[[0,0.5],[1,0.5]];portConstraint=eastwest;" vertex="1" parent="65">
                    <mxGeometry y="62" width="470" height="25" as="geometry"/>
                </mxCell>
                <mxCell id="156" value="+ modifyUserAccountDesktop(nome: String, cognome: String, email: String): User" style="text;html=1;strokeColor=none;fillColor=none;align=left;verticalAlign=middle;spacingLeft=4;spacingRight=4;overflow=hidden;rotatable=0;points=[[0,0.5],[1,0.5]];portConstraint=eastwest;" vertex="1" parent="65">
                    <mxGeometry y="87" width="470" height="25" as="geometry"/>
                </mxCell>
                <mxCell id="157" value="+ updgradeUserRole(idUtente: int, ruolo: String): User" style="text;html=1;strokeColor=none;fillColor=none;align=left;verticalAlign=middle;spacingLeft=4;spacingRight=4;overflow=hidden;rotatable=0;points=[[0,0.5],[1,0.5]];portConstraint=eastwest;" vertex="1" parent="65">
                    <mxGeometry y="112" width="470" height="25" as="geometry"/>
                </mxCell>
                <mxCell id="165" value="+ checkLogin(email: String, password: String): User" style="text;html=1;strokeColor=none;fillColor=none;align=left;verticalAlign=middle;spacingLeft=4;spacingRight=4;overflow=hidden;rotatable=0;points=[[0,0.5],[1,0.5]];portConstraint=eastwest;" vertex="1" parent="65">
                    <mxGeometry y="137" width="470" height="25" as="geometry"/>
                </mxCell>
                <mxCell id="164" value="+ getUserById(id: Integer): User" style="text;html=1;strokeColor=none;fillColor=none;align=left;verticalAlign=middle;spacingLeft=4;spacingRight=4;overflow=hidden;rotatable=0;points=[[0,0.5],[1,0.5]];portConstraint=eastwest;" vertex="1" parent="65">
                    <mxGeometry y="162" width="470" height="25" as="geometry"/>
                </mxCell>
                <mxCell id="163" value="+ firstAccess(idUtente: int, password: String): User" style="text;html=1;strokeColor=none;fillColor=none;align=left;verticalAlign=middle;spacingLeft=4;spacingRight=4;overflow=hidden;rotatable=0;points=[[0,0.5],[1,0.5]];portConstraint=eastwest;" vertex="1" parent="65">
                    <mxGeometry y="187" width="470" height="25" as="geometry"/>
                </mxCell>
                <mxCell id="162" value="+ verifyUser(email: String, nomeRistorante: String): User" style="text;html=1;strokeColor=none;fillColor=none;align=left;verticalAlign=middle;spacingLeft=4;spacingRight=4;overflow=hidden;rotatable=0;points=[[0,0.5],[1,0.5]];portConstraint=eastwest;" vertex="1" parent="65">
                    <mxGeometry y="212" width="470" height="25" as="geometry"/>
                </mxCell>
                <mxCell id="161" value="+ createUser(nome: String, cognome: String, passwordTemporanea: String, email: String, dataNascita: String, ruolo: String): User" style="text;html=1;strokeColor=none;fillColor=none;align=left;verticalAlign=middle;spacingLeft=4;spacingRight=4;overflow=hidden;rotatable=0;points=[[0,0.5],[1,0.5]];portConstraint=eastwest;" vertex="1" parent="65">
                    <mxGeometry y="237" width="470" height="25" as="geometry"/>
                </mxCell>
                <mxCell id="159" value="+ fireUser(idUtente: int, ruolo: String): void" style="text;html=1;strokeColor=none;fillColor=none;align=left;verticalAlign=middle;spacingLeft=4;spacingRight=4;overflow=hidden;rotatable=0;points=[[0,0.5],[1,0.5]];portConstraint=eastwest;" vertex="1" parent="65">
                    <mxGeometry y="262" width="470" height="25" as="geometry"/>
                </mxCell>
                <mxCell id="160" value="+ createAdmin(nome: String, cognome: String, email: String, password: String, dataNascita: String, nomeAttvita: String): User" style="text;html=1;strokeColor=none;fillColor=none;align=left;verticalAlign=middle;spacingLeft=4;spacingRight=4;overflow=hidden;rotatable=0;points=[[0,0.5],[1,0.5]];portConstraint=eastwest;" vertex="1" parent="65">
                    <mxGeometry y="287" width="470" height="25" as="geometry"/>
                </mxCell>
                <mxCell id="158" value="+ downgradeUserRole(idUtente: int, ruolo: String): User" style="text;html=1;strokeColor=none;fillColor=none;align=left;verticalAlign=middle;spacingLeft=4;spacingRight=4;overflow=hidden;rotatable=0;points=[[0,0.5],[1,0.5]];portConstraint=eastwest;" vertex="1" parent="65">
                    <mxGeometry y="312" width="470" height="25" as="geometry"/>
                </mxCell>
                <mxCell id="207" value="+ logout(id_user : Integer): String" style="text;html=1;strokeColor=none;fillColor=none;align=left;verticalAlign=middle;spacingLeft=4;spacingRight=4;overflow=hidden;rotatable=0;points=[[0,0.5],[1,0.5]];portConstraint=eastwest;" vertex="1" parent="65">
                    <mxGeometry y="337" width="470" height="25" as="geometry"/>
                </mxCell>
                <mxCell id="68" value="Gli attributi sono scritti con la sessa signature del database" style="shape=note2;boundedLbl=1;whiteSpace=wrap;html=1;size=25;verticalAlign=top;align=center;" vertex="1" parent="1">
                    <mxGeometry x="-1710" y="2560" width="190" height="100" as="geometry"/>
                </mxCell>
                <mxCell id="71" value="Extends" style="endArrow=block;endSize=16;endFill=0;html=1;" edge="1" parent="1" source="22" target="20">
                    <mxGeometry width="160" relative="1" as="geometry">
                        <mxPoint x="-1060" y="2647" as="sourcePoint"/>
                        <mxPoint x="-900" y="2647" as="targetPoint"/>
                    </mxGeometry>
                </mxCell>
                <mxCell id="179" value="" style="endArrow=block;dashed=1;endFill=0;endSize=12;html=1;" edge="1" parent="1" source="43" target="55">
                    <mxGeometry width="160" relative="1" as="geometry">
                        <mxPoint x="-156" y="1830" as="sourcePoint"/>
                        <mxPoint x="4" y="1830" as="targetPoint"/>
                    </mxGeometry>
                </mxCell>
                <mxCell id="195" value="" style="endArrow=block;dashed=1;endFill=0;endSize=12;html=1;" edge="1" parent="1" source="45" target="57">
                    <mxGeometry width="160" relative="1" as="geometry">
                        <mxPoint x="-57.000000000000455" y="1427" as="sourcePoint"/>
                        <mxPoint x="194" y="1512.9907407407409" as="targetPoint"/>
                    </mxGeometry>
                </mxCell>
                <mxCell id="203" value="" style="endArrow=block;dashed=1;endFill=0;endSize=12;html=1;" edge="1" parent="1" source="47" target="59">
                    <mxGeometry width="160" relative="1" as="geometry">
                        <mxPoint x="59.05000000000018" y="1137" as="sourcePoint"/>
                        <mxPoint x="140.95000000000027" y="1200" as="targetPoint"/>
                    </mxGeometry>
                </mxCell>
                <mxCell id="204" value="" style="endArrow=block;dashed=1;endFill=0;endSize=12;html=1;" edge="1" parent="1" source="49" target="61">
                    <mxGeometry width="160" relative="1" as="geometry">
                        <mxPoint x="1609" y="2500.5" as="sourcePoint"/>
                        <mxPoint x="979" y="1603.5" as="targetPoint"/>
                    </mxGeometry>
                </mxCell>
                <mxCell id="205" value="" style="endArrow=block;dashed=1;endFill=0;endSize=12;html=1;" edge="1" parent="1" source="51" target="63">
                    <mxGeometry width="160" relative="1" as="geometry">
                        <mxPoint x="260" y="1611.5" as="sourcePoint"/>
                        <mxPoint x="370" y="1611.5" as="targetPoint"/>
                    </mxGeometry>
                </mxCell>
                <mxCell id="206" value="" style="endArrow=block;dashed=1;endFill=0;endSize=12;html=1;" edge="1" parent="1" source="53" target="65">
                    <mxGeometry width="160" relative="1" as="geometry">
                        <mxPoint x="657" y="3044.5699999999997" as="sourcePoint"/>
                        <mxPoint x="767" y="3044.5699999999997" as="targetPoint"/>
                    </mxGeometry>
                </mxCell>
                <mxCell id="212" value="Extends" style="endArrow=block;endSize=16;endFill=0;html=1;exitX=0.5;exitY=0;exitDx=0;exitDy=0;" edge="1" parent="1" source="31" target="37">
                    <mxGeometry width="160" relative="1" as="geometry">
                        <mxPoint x="590" y="1915" as="sourcePoint"/>
                        <mxPoint x="590" y="1831.9999999999995" as="targetPoint"/>
                    </mxGeometry>
                </mxCell>
                <mxCell id="242" value="&amp;lt;&amp;lt;interface&amp;gt;&amp;gt;&lt;br&gt;HandlerInterceptor" style="swimlane;fontStyle=1;align=center;verticalAlign=middle;childLayout=stackLayout;horizontal=1;startSize=29;horizontalStack=0;resizeParent=1;resizeParentMax=0;resizeLast=0;collapsible=0;marginBottom=0;html=1;" vertex="1" parent="1">
                    <mxGeometry x="1440" y="4028" width="470" height="112" as="geometry"/>
                </mxCell>
                <mxCell id="243" value="" style="line;strokeWidth=1;fillColor=none;align=left;verticalAlign=middle;spacingTop=-1;spacingLeft=3;spacingRight=3;rotatable=0;labelPosition=right;points=[];portConstraint=eastwest;strokeColor=inherit;" vertex="1" parent="242">
                    <mxGeometry y="29" width="470" height="8" as="geometry"/>
                </mxCell>
                <mxCell id="245" value="+ preHandle() : void" style="text;html=1;strokeColor=none;fillColor=none;align=left;verticalAlign=middle;spacingLeft=4;spacingRight=4;overflow=hidden;rotatable=0;points=[[0,0.5],[1,0.5]];portConstraint=eastwest;" vertex="1" parent="242">
                    <mxGeometry y="37" width="470" height="25" as="geometry"/>
                </mxCell>
                <mxCell id="246" value="+ afterCompletation() : void" style="text;html=1;strokeColor=none;fillColor=none;align=left;verticalAlign=middle;spacingLeft=4;spacingRight=4;overflow=hidden;rotatable=0;points=[[0,0.5],[1,0.5]];portConstraint=eastwest;" vertex="1" parent="242">
                    <mxGeometry y="62" width="470" height="25" as="geometry"/>
                </mxCell>
                <mxCell id="247" value="+ postHandle() : void" style="text;html=1;strokeColor=none;fillColor=none;align=left;verticalAlign=middle;spacingLeft=4;spacingRight=4;overflow=hidden;rotatable=0;points=[[0,0.5],[1,0.5]];portConstraint=eastwest;" vertex="1" parent="242">
                    <mxGeometry y="87" width="470" height="25" as="geometry"/>
                </mxCell>
                <mxCell id="244" value="" style="endArrow=block;dashed=1;endFill=0;endSize=12;html=1;" edge="1" parent="1" source="39" target="242">
                    <mxGeometry width="160" relative="1" as="geometry">
                        <mxPoint x="2150" y="3926" as="sourcePoint"/>
                        <mxPoint x="2614.7526652452025" y="5688" as="targetPoint"/>
                    </mxGeometry>
                </mxCell>
                <mxCell id="256" value="Use" style="endArrow=open;endSize=12;dashed=1;html=1;" edge="1" parent="1" target="27">
                    <mxGeometry width="160" relative="1" as="geometry">
                        <mxPoint x="635.2472613458531" y="2307" as="sourcePoint"/>
                        <mxPoint x="1115.278560250391" y="2061.9999999999995" as="targetPoint"/>
                    </mxGeometry>
                </mxCell>
                <mxCell id="257" value="Use" style="endArrow=open;endSize=12;dashed=1;html=1;" edge="1" parent="1" source="49" target="33">
                    <mxGeometry width="160" relative="1" as="geometry">
                        <mxPoint x="645.2472613458531" y="2317" as="sourcePoint"/>
                        <mxPoint x="1125.278560250391" y="2071.9999999999995" as="targetPoint"/>
                    </mxGeometry>
                </mxCell>
                <mxCell id="258" value="Use" style="endArrow=open;endSize=12;dashed=1;html=1;" edge="1" parent="1" source="53" target="37">
                    <mxGeometry width="160" relative="1" as="geometry">
                        <mxPoint x="966.9984577114427" y="3398" as="sourcePoint"/>
                        <mxPoint x="1034.286019900497" y="2970" as="targetPoint"/>
                    </mxGeometry>
                </mxCell>
                <mxCell id="259" value="Use" style="endArrow=open;endSize=12;dashed=1;html=1;" edge="1" parent="1" source="51" target="35">
                    <mxGeometry width="160" relative="1" as="geometry">
                        <mxPoint x="645.2472613458531" y="2317" as="sourcePoint"/>
                        <mxPoint x="1125.278560250391" y="2071.9999999999995" as="targetPoint"/>
                    </mxGeometry>
                </mxCell>
                <mxCell id="260" value="Use" style="endArrow=open;endSize=12;dashed=1;html=1;" edge="1" parent="1" source="43" target="20">
                    <mxGeometry width="160" relative="1" as="geometry">
                        <mxPoint x="-184.52079207920815" y="2320" as="sourcePoint"/>
                        <mxPoint x="-603.261386138614" y="2142" as="targetPoint"/>
                    </mxGeometry>
                </mxCell>
                <mxCell id="261" value="Use" style="endArrow=open;endSize=12;dashed=1;html=1;" edge="1" parent="1" source="43" target="22">
                    <mxGeometry width="160" relative="1" as="geometry">
                        <mxPoint x="-835.1000000000008" y="2533.9999999999995" as="sourcePoint"/>
                        <mxPoint x="-1000" y="2553.174418604651" as="targetPoint"/>
                    </mxGeometry>
                </mxCell>
                <mxCell id="262" value="Use" style="endArrow=open;endSize=12;dashed=1;html=1;" edge="1" parent="1" source="45" target="24">
                    <mxGeometry width="160" relative="1" as="geometry">
                        <mxPoint x="-722.4786516853933" y="2534" as="sourcePoint"/>
                        <mxPoint x="-1157.116853932584" y="2707" as="targetPoint"/>
                    </mxGeometry>
                </mxCell>
                <mxCell id="264" style="edgeStyle=none;html=1;" edge="1" parent="1" source="41" target="53">
                    <mxGeometry relative="1" as="geometry">
                        <mxPoint x="1199.0995907230563" y="2854.9999999999995" as="targetPoint"/>
                        <mxPoint x="784" y="3000.166030534351" as="sourcePoint"/>
                    </mxGeometry>
                </mxCell>
                <mxCell id="265" value="1" style="edgeLabel;html=1;align=center;verticalAlign=middle;resizable=0;points=[];" connectable="0" vertex="1" parent="264">
                    <mxGeometry x="0.6139" y="1" relative="1" as="geometry">
                        <mxPoint x="-94" y="-61" as="offset"/>
                    </mxGeometry>
                </mxCell>
                <mxCell id="266" value="" style="endArrow=open;endSize=12;dashed=1;html=1;" edge="1" parent="1" source="41" target="39">
                    <mxGeometry width="160" relative="1" as="geometry">
                        <mxPoint x="1420" y="3950" as="sourcePoint"/>
                        <mxPoint x="1580" y="3950" as="targetPoint"/>
                    </mxGeometry>
                </mxCell>
            </root>
        </mxGraphModel>
    </diagram>
</mxfile>